<svg xmlns="http://www.w3.org/2000/svg">
    <defs>
        <symbol id="arrow-prev" viewBox="0 0 96 96"><path fill="#54a0ff" d="m39.3756 48.0022 30.47-25.39a6.0035 6.0035 0 0 0-7.6878-9.223L26.1563 43.3906a6.0092 6.0092 0 0 0 0 9.2231L62.1578 82.615a6.0035 6.0035 0 0 0 7.6878-9.2231Z"/></symbol>
        <symbol id="arrow-next" viewBox="0 0 96 96"><path fill="#54a0ff" d="M69.8437 43.3876 33.8422 13.3863a6.0035 6.0035 0 0 0-7.6878 9.223l30.47 25.39-30.47 25.39a6.0035 6.0035 0 0 0 7.6878 9.2231l36.0015-30.0018a6.0091 6.0091 0 0 0 0-9.223Z"/></symbol>
    </defs>
</svg>